<svg id="Layer_1" data-name="Layer 1" xmlns="http://www.w3.org/2000/svg" viewBox="0 0 600 600"><defs><style>.cls-1{fill:#fff;}</style></defs><g id="Group_872" data-name="Group 872"><g id="aggregates-markets-icon-mobile"><path id="Path_167" data-name="Path 167" class="cls-1" d="M538.74,389.93s-9.26-10.46-23.81-26.52c0-.37.06-.73.07-1.11a9.07,9.07,0,0,0-1.12-4.47,5.06,5.06,0,0,0-2-2,4,4,0,0,0-2.49-.27h-.08a8.42,8.42,0,0,0-1.21.36l-2.7-3c-.31-.64-.63-1.29-1-1.91-.5-.92-.94-1.88-1.46-2.76s-1-1.74-1.49-2.65c-.28-.6-.55-1.21-.79-1.82a35.49,35.49,0,0,0-1.59-3.28,14.57,14.57,0,0,0-1.63-2.28,9.39,9.39,0,0,0-1.4-1.27,15.94,15.94,0,0,1-2.27-2,10.44,10.44,0,0,1-.58-.89c-.54-1.15-1-2.38-1.58-3.48s-1.06-2-1.65-3c-.3-.49-.63-.95-1-1.41a25.43,25.43,0,0,0-2.06-2.47c-.64-.7-1.28-1.42-1.88-2.18-.22-.28-.43-.56-.64-.86l-.44-.67-.51-.72c-.44-.57-.88-1.12-1.33-1.68a19.37,19.37,0,0,0-2.22-2.48c-.79-.72-1.63-1.38-2.44-2.11a27.83,27.83,0,0,1-2.69-2.74c-.46-.62-.89-1.3-1.34-1.92s-.69-1-1-1.5-.71-1-1.06-1.58a18,18,0,0,1-1-1.7,17,17,0,0,1-.8-2.31,11.82,11.82,0,0,0-1.4-3.24,10.61,10.61,0,0,0-1.4-1.66c-.31-.32-.64-.61-.95-.91-.59-.59-1.14-1.24-1.7-1.89s-1.15-1.31-1.76-1.91a13.14,13.14,0,0,0-1.18-.94c-.36-.27-.73-.52-1.1-.79a21.64,21.64,0,0,0-2.11-1.25c-.71-.39-1.36-.8-2-1.24-.33-.19-.66-.36-1-.53s-.74-.43-1.1-.66a18.8,18.8,0,0,1-1.71-1.21c-.49-.41-1-.79-1.45-1.26l-.67-.62-.59-.53a7.37,7.37,0,0,1-.79-.79,12.32,12.32,0,0,1-.69-1.08,10.73,10.73,0,0,1-.42-1.12c-.2-.79-.37-1.59-.57-2.43a23.44,23.44,0,0,0-.79-2.55,15.19,15.19,0,0,0-.72-1.53,7.32,7.32,0,0,0-1-1.3,7.81,7.81,0,0,0-2.19-1.64,10.63,10.63,0,0,0-1.89-.75l-1.59-.55A13.79,13.79,0,0,1,437,268c-.7-.43-1.39-.94-2.08-1.43l-.85-.64c-.29-.2-.72-.5-1.09-.72a9.61,9.61,0,0,0-1.77-.85,6.81,6.81,0,0,0-1.72-.34h-1.31a5.8,5.8,0,0,0-.79.09,2.72,2.72,0,0,0-.43-1.42c-.47-.7-.86-1.49-1.35-2.16s-1.08-1.3-1.63-1.94c-1-1.15-2-2.3-3-3.32a15.84,15.84,0,0,0-1.93-1.63c-.3-.22-.59-.43-.89-.63a13.37,13.37,0,0,0-1.41-.72c-.58-.28-1.17-.55-1.75-.8a7.15,7.15,0,0,1-1.59-.79l-.64-.47a10.78,10.78,0,0,1-1.2-1.14c-.39-.42-.76-.9-1.15-1.3-.91-.91-1.77-1.9-2.62-2.91-.42-.51-.88-1-1.31-1.46s-.86-1-1.31-1.42-.91-.86-1.37-1.26a16.3,16.3,0,0,1-1.9-1.72,19,19,0,0,1-1.48-2.49c-.22-.49-.4-1-.58-1.5-.1-.29-.2-.57-.31-.84a14.7,14.7,0,0,0-.79-1.59c-.45-.8-1-1.59-1.42-2.38a15.48,15.48,0,0,0-1.1-1.55,13.93,13.93,0,0,0-1.12-1.3c-.54-.55-1.08-1.11-1.59-1.69-1.17-1.27-2.28-2.7-3.51-3.86l-.87-.85a14.84,14.84,0,0,0-2.17-1.71,11.35,11.35,0,0,0-2.24-1.1l-1.63-.58a18.15,18.15,0,0,0-2.14-.65,7,7,0,0,0-2.89,0,12.85,12.85,0,0,0-1.85.47,8.89,8.89,0,0,0-1.15.46c-15.8-14.34-27.85-23.51-32.88-23.51-9.52,0-44.11,32.75-81.71,71.45-12.74-15.59-37.69-52.49-47.49-52.49-5.55,0-17.9,14.64-29.45,29.38a14.28,14.28,0,0,0-1.13,1.06c-.92.92-1.72,1.95-2.6,2.9s-1.72,1.75-2.64,2.59c-.52.49-1,1-1.52,1.48s-.73.8-1.1,1.22c-.89.92-1.84,1.78-2.71,2.71-.41.43-.8.9-1.18,1.34a15.25,15.25,0,0,1-1.25,1.31L168,258.75c-.37.38-.79.72-1.18,1.08l-1.46,1.34-.72.67a14.87,14.87,0,0,0-1.78,2.1,18.37,18.37,0,0,0-1.43,2.52,22.44,22.44,0,0,1-1.53,2.58,10.12,10.12,0,0,1-1.22,1.23c-.92.65-1.9,1.23-2.79,1.9l-1.54,1.18c-.49.39-.84.76-1.25,1.15a11.4,11.4,0,0,0-2.38,3.26c-.3.6-.54,1.23-.8,1.86-.12.32-.26.65-.38,1a11.5,11.5,0,0,0-.41,1.53c-.18.79-.3,1.58-.54,2.38a6.22,6.22,0,0,1-.32.56,1,1,0,0,1-.33.31c-.57.4-1.16.76-1.76,1.1a22.82,22.82,0,0,0-1.94,1.24,18.25,18.25,0,0,0-2.38,2.1,11.81,11.81,0,0,0-1.59,2.13,7.09,7.09,0,0,0-.52,1.16,13.56,13.56,0,0,0-.44,1.41,17.56,17.56,0,0,1-.64,2l-.34.79c-.39.92-.79,1.85-1.25,2.75-.22.42-.44.85-.68,1.27l-9.9,12.25-1,.84a20.28,20.28,0,0,0-3.07,3.41,39.3,39.3,0,0,0-3,4.27l-.06.12-15.53,18.92a17.13,17.13,0,0,0-1.9,1c-.47.29-.92.6-1.36.92-.89.64-1.76,1.28-2.63,2a29.93,29.93,0,0,0-2.86,2.66L92,350.82c-.38.4-.79.79-1.15,1.18l-1.79,2c-.92,1-1.77,2.11-2.65,3.17s-1.74,2.12-2.61,3.18l-2.38,2.89c-.52.64-1,1.32-1.45,2s-1.15,1.59-1.7,2.38a1.68,1.68,0,0,0-.22.47,2,2,0,0,0-.51.92c-.1.38-.19.74-.27,1.11,0,.21-.09.42-.12.64a5,5,0,0,0,0,1.92,4.2,4.2,0,0,0,.21.66l-9.53,11.6c-.29.15-.58.3-.86.47-.55.37-1.08.77-1.59,1.19s-1.2,1.08-1.76,1.66c-.21.21.24.34,1.11.43l-4,4.82a8.33,8.33,0,0,0-1.27,7.77,6,6,0,0,0,5.41,4.4H533.32a7.71,7.71,0,0,0,7-5.68A10.76,10.76,0,0,0,538.74,389.93Z"/></g></g></svg>