<svg id="Layer_1" data-name="Layer 1" xmlns="http://www.w3.org/2000/svg" viewBox="0 0 600 600"><defs><style>.cls-1{fill:#fff;fill-rule:evenodd;}</style></defs><g id="Group_876" data-name="Group 876"><g id="supply-markets-icon-mobile"><path id="Path_1401" data-name="Path 1401" class="cls-1" d="M177.66,285.72l-.07-177.39A19.28,19.28,0,0,1,197,89.15a20.53,20.53,0,0,1,2.06.13c11.16.27,22.33,4.13,22.33,19l.07,177.39h7.21v50.1h50.54a9.83,9.83,0,0,1,9.8,9.81h0a9.84,9.84,0,0,1-9.16,9.78v58.82c-4,49.17-42.48,92.09-78,96.62-40.79-1.45-81.52-49.64-86.46-91.12V355.48h-.1a9.82,9.82,0,0,1-9.8-9.8h0a9.8,9.8,0,0,1,9.79-9.8H169.1v-50.1ZM381.39,91.05h0a27.45,27.45,0,0,1,27.36,27.38v11.4H354v-11.4A27.45,27.45,0,0,1,381.39,91.05ZM309.2,155.36H447.5l30.87,85.33-4.26,1.14-36.29-76.21H313.87l-4.67-10.27Zm-19.1-10.79V258.24H354V483a27.46,27.46,0,0,0,27.37,27.39h0A27.44,27.44,0,0,0,408.75,483V258.24h74.79l11-10.64L458.76,144.53ZM130.54,391c-8.88,41.67,5,78.29,56.44,105.39A237.29,237.29,0,0,1,130.57,391Z"/></g></g></svg>