<svg id="Layer_1" data-name="Layer 1" xmlns="http://www.w3.org/2000/svg" viewBox="0 0 600 600"><defs><style>.cls-1{fill:#fff;}</style></defs><g id="Group_874" data-name="Group 874"><g id="paving-markets-icon-mobile"><g id="Group_1491" data-name="Group 1491"><g id="Group_1490" data-name="Group 1490"><path id="Path_1885" data-name="Path 1885" class="cls-1" d="M55,299.9c-1.77-.8-5,7.14-5.55,9C44.87,323,45,356.35,53.61,360.16,64.7,360.06,65.07,301.14,55,299.9Z"/><path id="Path_1886" data-name="Path 1886" class="cls-1" d="M35.46,325.51c-2.88,72.77,30.32,98.17,38.83,22.68C84,261.65,39.21,229.76,35.46,325.51Zm3.82,15.54c-6-59.23,33.05-67.07,30.77-8.33C68.36,376.21,43.2,379.72,39.28,341.05Z"/><path id="Path_1887" data-name="Path 1887" class="cls-1" d="M121.2,352l-39-8.46c-1.29,15.76-5.07,37.89-14.62,50.38l60.81-1.59C126.7,386.83,119.62,356.85,121.2,352Z"/><path id="Path_1890" data-name="Path 1890" class="cls-1" d="M123.59,125.94l.45,0v-.14Z"/><path id="Path_1891" data-name="Path 1891" class="cls-1" d="M362.1,126.36C358.85,117.14,374.67,123,139,95.68a39.46,39.46,0,0,1,1.45,6.35Z"/><path id="Path_1892" data-name="Path 1892" class="cls-1" d="M89.43,218.93c4.34-110.5-4.76-92.22,35.11-100.82a3,3,0,0,1,.73,0c3,.07,5.79,1.73,6.35,8.55.12,1.3,9.13,105.52,9.22,106.8q1.65-2.66,3.4-5c-.46-5.06-9.93-131.9-14.21-133.74l-35.95,9.93c-8.44,5.08-7.43,69.31-8.55,98A97,97,0,0,1,89.43,218.93Z"/><path id="Path_1893" data-name="Path 1893" class="cls-1" d="M95.23,247.92a9.17,9.17,0,0,1,.39,2.14c23.41,2.55,29.93.14,33.38,9.23,1.25-3.73,2.63-7.38,4-10.7Z"/><path id="Path_1894" data-name="Path 1894" class="cls-1" d="M144.4,287l52.69,1.23C185.15,241.39,158.08,239.18,144.4,287Z"/><path id="Path_1895" data-name="Path 1895" class="cls-1" d="M190,386.36a131.86,131.86,0,0,0,6.77-18c-48-10.37-36.77-8.85-55.32-8.73C149.06,401.11,171.85,423.1,190,386.36Z"/><path id="Path_1896" data-name="Path 1896" class="cls-1" d="M416.33,423.92c25.13-1.21,42.25-28.08,49.52-53.19l-246.14,3.54c-4.11,20.27-13,46.55-28.45,60.15l225.07-10.48Z"/><path id="Path_1897" data-name="Path 1897" class="cls-1" d="M202.61,374.44c-17.09,56-57.9,49.75-69-15.46L129,357.93c2.48,21.62,9.28,50.25,23.22,66.63A31.1,31.1,0,0,0,165,434.18c24,8.52,40.65-31.11,46.58-57.75C211.07,376.35,203.21,374.57,202.61,374.44Z"/><path id="Path_1898" data-name="Path 1898" class="cls-1" d="M129.76,288l.71-.67-.52-.11-.27.4Z"/><path id="Path_1899" data-name="Path 1899" class="cls-1" d="M214.49,294.58c-2.91-21-10.5-51.09-26.2-65.43a23.26,23.26,0,0,0-15.77-6.84h0c-22.28.63-36,39-40.93,64h0l5.09.34c16.12-59.6,57.06-54.89,69.34,7.06Z"/><path id="Path_1900" data-name="Path 1900" class="cls-1" d="M222.69,298.32l246,4.63c-6.53-34-26.3-65.09-53.08-66.61L193.2,223.46C211.47,240,219.81,273.79,222.69,298.32Z"/><path id="Path_1901" data-name="Path 1901" class="cls-1" d="M221.17,364c260.55-3.4,246.72-.08,249-10-75.11.4-10.48.07-246.89,1.3A35.92,35.92,0,0,1,221.17,364Z"/><path id="Path_1902" data-name="Path 1902" class="cls-1" d="M471.55,327.9l-247-2.26c-.67,17-.51,13.2-.86,22.23l247.1-1.29Z"/><path id="Path_1903" data-name="Path 1903" class="cls-1" d="M84.1,336.33l128.76,27.84a27.23,27.23,0,0,0,3.24-12.7c.51-13.25,3.52-37.8-1.71-44.14l-84.62-9.7c-9.58-1.06-8.62-17.26-8.25-26.73a15.11,15.11,0,0,0-1-6.56,198.93,198.93,0,0,1-29.84-4.45c-6-4.76-8.17-36.32-12.47-50.25l-32.82,2c-8.82,4.66-8.91,53.73-9.31,64.15C55.15,230.21,87.8,264,84.1,336.33Z"/><path id="Path_1904" data-name="Path 1904" class="cls-1" d="M222.69,307.12a36.71,36.71,0,0,1,2,11l246.89,2.26C470.1,308.17,489.11,312,222.69,307.12Z"/></g><path id="Path_1905" data-name="Path 1905" class="cls-1" d="M564.71,505.24,436.43,434.5l-83.61,2.12,17.57,10.86H335.54l-13.06-7.77L196.1,443.53l99.07,61.67C296.82,505,526,505.58,564.71,505.24ZM433.27,493.77H399.92L380.36,480.5H413Zm-49.56-35.48,18.12,10.9H367.39L349,458.29Z"/></g><g id="Group_1492" data-name="Group 1492"><path id="Path_1906" data-name="Path 1906" class="cls-1" d="M363.68,134,141.21,109.63l10.23,115a29.33,29.33,0,0,1,23.11-9.77l202.38,11.72ZM162.74,202.77l-7-81.62,198.83,20.39,7.56,70.58Z"/></g></g></g></svg>