<svg id="Layer_1" data-name="Layer 1" xmlns="http://www.w3.org/2000/svg" viewBox="0 0 600 600"><defs><style>.cls-1{fill:#fff;}</style></defs><g id="Group_873" data-name="Group 873"><g id="concrete-markets-icon-mobile"><path id="Path_152" data-name="Path 152" class="cls-1" d="M308,356.67A38.36,38.36,0,1,0,346.35,395,38.41,38.41,0,0,0,308,356.67ZM308,415a20,20,0,1,1,19.94-20A20,20,0,0,1,308,415Z"/><path id="Path_153" data-name="Path 153" class="cls-1" d="M431.7,239.11V357a9.17,9.17,0,0,0,9.14,9.15h17.75a2.63,2.63,0,0,0,.39-.06,44.78,44.78,0,0,1,68.55,0,1.23,1.23,0,0,0,.39.06h25.93A9.17,9.17,0,0,0,563,357V307.87A57.84,57.84,0,0,0,559.58,290l-20.45-51.53a14.79,14.79,0,0,0-12.58-8.54H440.86a9.15,9.15,0,0,0-9.16,9.15Zm20.42,20a9.43,9.43,0,0,1,9.41-9.42H512.2a15.47,15.47,0,0,1,13,8.65l13.32,31.9a5.88,5.88,0,0,1-5.83,8.76H461.53a9.44,9.44,0,0,1-9.41-9.42Z"/><path id="Path_154" data-name="Path 154" class="cls-1" d="M493.25,356.67A38.36,38.36,0,1,0,531.61,395,38.42,38.42,0,0,0,493.25,356.67Zm0,58.31a20,20,0,1,1,20-20,20,20,0,0,1-20,20Z"/><path id="Path_155" data-name="Path 155" class="cls-1" d="M558.17,371.92H534a1.43,1.43,0,0,0-1.2.69,1.38,1.38,0,0,0,0,1.39,45,45,0,0,1,5.26,21,6,6,0,0,0,6,6c3.21,0,21.19-7.34,21.19-19.69v-.32A8.34,8.34,0,0,0,558.17,371.92Z"/><path id="Path_156" data-name="Path 156" class="cls-1" d="M226.88,356.67A38.36,38.36,0,1,0,265.23,395,38.41,38.41,0,0,0,226.88,356.67Zm0,58.31a20,20,0,1,1,19.94-20,20,20,0,0,1-19.94,20Z"/><path id="Path_157" data-name="Path 157" class="cls-1" d="M186.09,371.92H134a1.92,1.92,0,0,0-1.92,1.93V387c0,2.53.32,4,2,4.2l33.12,2.32c1.65.4,2.17,1.93,2.8,3.44,0,0,4,11.12,8,11.12,3.33,0,4.07-1.73,4.07-5.06v-8a44.85,44.85,0,0,1,5.26-21,1.38,1.38,0,0,0,0-1.39A1.42,1.42,0,0,0,186.09,371.92Z"/><path id="Path_158" data-name="Path 158" class="cls-1" d="M452.47,371.92H348.78a1.44,1.44,0,0,0-1.21.69,1.38,1.38,0,0,0,0,1.39,44.8,44.8,0,0,1,5.26,21.05v8c0,3.33.74,5.06,4.08,5.06,4.53,0,8-8.07,8-8.07h71.53s3.85,8.07,8,8.07c3.33,0,4.08-1.73,4.08-5.06v-8a44.85,44.85,0,0,1,5.26-21,1.42,1.42,0,0,0-1.31-2.11Z"/><path id="Path_159" data-name="Path 159" class="cls-1" d="M406.58,175.54a5,5,0,0,0,.37,2c.42.71,1.15.91,1.88,1.3a18.59,18.59,0,0,1,8.62,9.48L432.13,227a1.22,1.22,0,0,0,2.06.61,90.22,90.22,0,0,0,33.15-48.2H478c1.21,0,2.11,0,2.8-.65a4.52,4.52,0,0,0,.75-2.54v-7.17a3,3,0,0,0-.64-1.83,3.14,3.14,0,0,0-1.77-.62H408.68a2.35,2.35,0,0,0-1.69.55,2.52,2.52,0,0,0-.42,1.58Z"/><path id="Path_160" data-name="Path 160" class="cls-1" d="M338.74,328.13,385.09,366h20.52L382.14,289.3l-40.08,36.11A40.49,40.49,0,0,1,338.74,328.13Z"/><path id="Path_161" data-name="Path 161" class="cls-1" d="M188.88,366a48.44,48.44,0,0,1,18-13.3l-33.42-3.39a20.12,20.12,0,0,1-13.71-8.42V283.78A15.81,15.81,0,0,0,144,268H68a15.81,15.81,0,0,0-15.27,11.77l-17.54,66.4a15.8,15.8,0,0,0,11.25,19.31,16,16,0,0,0,4,.52H188.88Z"/><path id="Path_162" data-name="Path 162" class="cls-1" d="M281.36,347.06,325,327.84a92.4,92.4,0,0,0,9-5.38,36.48,36.48,0,0,0,3.15-2.51l27.51-24.8L279.22,312l87.65-61.58-108.1,20.49,87.5-61.45L244.42,228.74l2.43-5.22,57.37-40.29-20.52-.15a41.57,41.57,0,0,0-4.47.27,91.53,91.53,0,0,0-9.84,2l-43.91,14.21a60.11,60.11,0,0,0-8.07,4.32,27,27,0,0,0-3.9,3.35l-20.35,22.07-11.5,24.22,38.93,10.29-17.21,36.37,39.29,10.29-16.4,34.67,41.1,4.18a30.21,30.21,0,0,0,7.23-.36A66.25,66.25,0,0,0,281.36,347.06Z"/><path id="Path_163" data-name="Path 163" class="cls-1" d="M366.9,200.74l-87.5,61.44,108.1-20.49L300.16,303l71.32-14,51.41-46.33a11.62,11.62,0,0,0,2.86-11.8l-15.16-40a11.59,11.59,0,0,0-9.95-6.92l-88.28-.64-54.18,38.05Z"/><path id="Path_164" data-name="Path 164" class="cls-1" d="M190.27,334.83a13.07,13.07,0,0,0,9.92,7.62l21.05,2.14,14.68-31-39.29-10.3,17.22-36.37-38.93-10.3,7.45-15.65-14.6,15.84a13,13,0,0,0-2.38,12.27Z"/></g></g></svg>