<svg id="Layer_1" data-name="Layer 1" xmlns="http://www.w3.org/2000/svg" viewBox="0 0 600 600"><defs><style>.cls-1{fill:#fff;}</style></defs><g id="Group_875" data-name="Group 875"><g id="construction-markets-icon-mobile"><path id="Path_170" data-name="Path 170" class="cls-1" d="M269.1,274.94a21,21,0,0,1-6.84-1.15L247.8,484.87h42.62L276,273.67A21.08,21.08,0,0,1,269.1,274.94Z"/><path id="Path_171" data-name="Path 171" class="cls-1" d="M393.46,323.89c-1.81-1.45-4.72-3.86-8.43-6.89-22.18-18.32-68.33-56.42-85.55-63.29a5.44,5.44,0,0,0-1.3-.35l-10.57-1.61a18.82,18.82,0,0,0-9.1-14.46c1-18.89,2.94-65.76.26-126.52a5.28,5.28,0,0,0-5.33-4.76,5.47,5.47,0,0,0-5.59,4.18c-.35,2.3-1,6-1.77,10.74-4.77,28.37-14.69,87.37-12,105.76a5.64,5.64,0,0,0,.35,1.28l3.92,10a18.59,18.59,0,0,0-8,15.07c-17,8.57-58.48,30.38-109.64,63a5.57,5.57,0,0,0,5,9.73c2.16-.83,5.68-2.15,10.17-3.82,27-10.05,83-31,97.63-42.48a5.06,5.06,0,0,0,.93-.92l6.7-8.38a18.71,18.71,0,0,0,17.09-.61c15.82,10.35,55.41,35.39,109.41,63.47a4.52,4.52,0,0,0,2.07.5,5.65,5.65,0,0,0,4.7-2.74A5.28,5.28,0,0,0,393.46,323.89ZM269,245a8.29,8.29,0,1,1-8.3,8.3A8.28,8.28,0,0,1,269,245Z"/><path id="Path_172" data-name="Path 172" class="cls-1" d="M405.36,365.15c-.43-.09-.84-.24-1.27-.36L398.42,494h20l-4.9-111.74C410,375.12,407.26,369.27,405.36,365.15Z"/><path id="Path_173" data-name="Path 173" class="cls-1" d="M460.35,273.64a4.27,4.27,0,0,0-5.63.51c-.94,1.07-2.49,2.8-4.47,5-12,13.34-36.92,41.11-41.69,51.78l-1.45,6.81a12.54,12.54,0,0,0-8.9,5.18c-12.07-1.15-40.9-3.41-78.06-3.37a4.45,4.45,0,0,0-.8,8.72c1.42.28,3.73.77,6.67,1.39,17.53,3.7,54,11.41,65.63,10.19l6.58-2.15a12.66,12.66,0,0,0,8.91,5.11c5,11.06,17.44,37.15,36.12,69.31a4,4,0,0,0,3.54,1.93,4.66,4.66,0,0,0,2-.47,4.28,4.28,0,0,0,2.38-5.11c-.47-1.37-1.2-3.61-2.13-6.45-5.56-17-17.13-52.48-24-62l-5.17-4.65a12.46,12.46,0,0,0,0-10.28c7.08-9.92,23.45-33.69,42-65.9A4.22,4.22,0,0,0,460.35,273.64ZM406.5,346.58a4.17,4.17,0,1,1-1.76,5.63,4.13,4.13,0,0,1,1.76-5.63h0Z"/><rect id="Rectangle_95" data-name="Rectangle 95" class="cls-1" x="156.22" y="484.87" width="333.49" height="9.11"/><circle id="Ellipse_14" data-name="Ellipse 14" class="cls-1" cx="268.97" cy="253.3" r="3.65"/><path id="Path_174" data-name="Path 174" class="cls-1" d="M186.66,383.87c-.38-.08-.73-.2-1.09-.31L180.73,494h17.1l-4.18-95.49C190.63,392.39,188.27,387.4,186.66,383.87Z"/><path id="Path_175" data-name="Path 175" class="cls-1" d="M233.66,305.65a3.66,3.66,0,0,0-4.81.43c-.8.92-2.13,2.4-3.82,4.29-10.24,11.4-31.55,35.13-35.64,44.26l-1.23,5.83a10.65,10.65,0,0,0-7.61,4.4c-10.35-1-35-2.9-66.72-2.88a3.8,3.8,0,0,0-.68,7.48c1.21.24,3.19.66,5.7,1.19,15,3.16,46.14,9.77,56.08,8.7l5.64-1.83a10.85,10.85,0,0,0,7.61,4.36c4.31,9.45,14.91,31.75,30.87,59.23a3.47,3.47,0,0,0,3,1.65,4,4,0,0,0,1.73-.4,3.65,3.65,0,0,0,2-4.37c-.4-1.15-1-3.09-1.82-5.52-4.75-14.55-14.64-44.83-20.51-53l-4.43-4a10.67,10.67,0,0,0,0-8.78c6-8.48,20-28.8,35.84-56.33A3.62,3.62,0,0,0,233.66,305.65Zm-46,62.35a3.47,3.47,0,0,1,1.64-.41,3.92,3.92,0,0,1,1.07.17,3.51,3.51,0,0,1,2.1,1.73,3.56,3.56,0,1,1-4.81-1.51Z"/></g></g></svg>